<?xml version="1.0" standalone="no"?>
<!DOCTYPE svg PUBLIC "-//W3C//DTD SVG 20010904//EN"
 "http://www.w3.org/TR/2001/REC-SVG-20010904/DTD/svg10.dtd">
<svg version="1.0" xmlns="http://www.w3.org/2000/svg"
 width="512.000000pt" height="512.000000pt" viewBox="0 0 512.000000 512.000000"
 preserveAspectRatio="xMidYMid meet">
<metadata>
Created by potrace 1.14, written by Peter Selinger 2001-2017
</metadata>
<g transform="translate(0.000000,512.000000) scale(0.100000,-0.100000)"
fill="#000000" stroke="none">
<path d="M1765 5106 c-49 -15 -94 -43 -118 -74 -10 -12 -25 -29 -33 -36 -8 -8
-14 -21 -14 -28 0 -8 -5 -19 -12 -26 -16 -16 -18 -32 -21 -147 -2 -55 -6 -106
-10 -112 -5 -7 -4 -13 1 -13 5 0 7 -21 5 -47 -2 -27 -3 -52 -3 -58 5 -99 3
-308 -2 -311 -4 -2 -4 -17 -1 -32 9 -50 8 -92 -2 -92 -7 0 -7 -3 0 -8 12 -8
13 -102 1 -120 -4 -7 -4 -12 1 -12 4 0 8 -68 8 -150 0 -83 -3 -150 -7 -150 -4
0 -3 -12 2 -26 13 -33 13 -37 -2 -28 -7 5 -8 3 -3 -6 12 -19 12 -100 0 -100
-7 0 -7 -3 0 -8 14 -10 15 -42 2 -42 -8 0 -7 -4 1 -12 7 -7 8 -17 1 -30 -5
-10 -6 -18 -2 -18 5 0 8 -27 8 -60 0 -34 -4 -60 -10 -60 -7 0 -6 -3 0 -8 14
-10 14 -464 0 -474 -7 -5 -7 -8 0 -8 7 0 10 -61 10 -167 -1 -176 -8 -206 -48
-219 -10 -3 -17 -8 -14 -10 6 -6 -504 -514 -516 -514 -6 0 -8 -2 -5 -5 3 -3
-62 -72 -143 -153 -82 -81 -149 -150 -149 -154 0 -4 -14 -28 -31 -53 -17 -25
-32 -51 -33 -58 -1 -7 -6 -19 -11 -27 -5 -8 -10 -19 -12 -25 -10 -47 -13 -59
-19 -78 -25 -78 -13 -301 17 -332 5 -5 9 -17 9 -26 0 -22 56 -125 95 -174 39
-48 73 -85 79 -85 3 0 19 -13 36 -28 28 -26 148 -92 174 -96 6 -1 17 -5 24 -9
7 -5 26 -9 42 -9 17 -1 30 -4 30 -8 0 -4 52 -8 115 -8 70 0 115 3 115 9 0 6 5
7 10 4 5 -3 15 -3 22 1 7 4 21 9 33 11 46 6 57 10 64 22 4 7 12 11 18 9 29 -9
168 101 316 250 86 87 157 157 157 157 0 -1 108 107 240 240 132 133 240 241
240 240 0 -3 212 215 252 258 20 21 42 50 49 65 8 15 17 29 20 32 25 20 86
186 91 246 2 21 8 42 13 46 6 5 5 8 -4 8 -9 0 -10 4 -4 13 8 10 10 2678 2
2725 -1 6 -5 12 -9 12 -3 0 -7 10 -7 22 -1 13 -9 28 -17 34 -9 6 -13 13 -10
16 2 3 -17 25 -44 49 -87 78 -88 78 -545 78 -297 0 -412 -3 -442 -13z"/>
<path d="M3667 4553 c-1 -1 -40 -3 -86 -4 -126 -3 -206 -41 -259 -123 -14 -22
-27 -43 -27 -46 0 -3 -4 -11 -9 -18 -13 -20 -28 -462 -16 -462 3 0 4 -19 3
-42 -2 -36 -4 -447 -2 -498 0 -8 0 -156 -1 -329 0 -172 1 -316 4 -319 3 -3 1
-11 -5 -19 -6 -7 -8 -13 -3 -13 10 0 9 -133 -1 -149 -3 -6 -3 -11 2 -11 9 0 8
-134 -2 -149 -3 -6 -3 -11 2 -11 9 0 8 -134 -2 -149 -3 -6 -3 -11 2 -11 9 0 8
-134 -2 -149 -3 -6 -3 -11 2 -11 4 0 6 -33 5 -72 -3 -56 -8 -77 -23 -91 -10
-10 -19 -23 -19 -29 0 -6 -2 -9 -5 -6 -6 6 -780 -766 -825 -822 -17 -21 -30
-42 -30 -47 0 -5 -6 -15 -12 -22 -7 -6 -13 -15 -14 -19 0 -4 -10 -27 -21 -52
-25 -57 -35 -93 -39 -150 -1 -25 -4 -47 -5 -50 -5 -13 -3 -130 2 -130 4 0 5
-10 5 -22 -1 -13 0 -27 3 -33 3 -5 6 -12 7 -15 1 -3 5 -20 9 -38 4 -18 12 -35
16 -38 5 -3 9 -14 9 -25 0 -10 5 -19 12 -19 6 0 9 -3 5 -6 -5 -6 34 -74 63
-107 150 -175 306 -248 518 -242 53 1 107 5 118 8 92 23 194 65 194 79 0 4 6
8 13 8 6 0 30 15 51 33 50 40 1040 1030 1084 1083 17 21 37 44 42 51 6 7 10
15 10 19 0 3 9 18 19 32 10 15 19 30 20 34 1 4 9 25 18 45 26 63 45 134 39
149 -3 8 -1 14 3 14 10 0 13 120 15 623 0 198 -2 361 -7 364 -4 2 -5 8 -2 13
5 7 9 124 5 145 -1 6 -1 37 1 70 5 155 3 565 -3 565 -4 0 -5 7 -1 16 10 26 10
328 0 342 -5 6 -6 12 -1 12 5 0 9 25 9 55 0 30 -4 55 -8 55 -5 0 -5 5 -1 11 4
6 6 117 6 246 0 229 -2 249 -35 323 -14 32 -107 121 -118 114 -5 -3 -9 -1 -9
4 0 12 -85 36 -99 27 -6 -3 -11 -3 -11 2 0 6 -607 13 -613 6z"/>
</g>
</svg>
